<svg xmlns="http://www.w3.org/2000/svg" version="1.1" xmlns:xlink="http://www.w3.org/1999/xlink" viewBox="0 0 32 32" width="100%" height="100%" preserveAspectRatio="xMidYMid meet" data-di-res-id="2034299d-8794cff7" data-di-rand="1605025428706" fill="currentColor">
    <g>
        <path d="M15.95,1c-8.28,0-15,6.72-15,15c0,8.28,6.72,15,15,15c8.28,0,15-6.72,15-15C30.95,7.72,24.23,1,15.95,1z M17.44,25h-3 V14.85c0-0.31,0.07-0.54,0.2-0.66C14.77,14.07,14.99,14,15.3,14h2.14V25z M17.23,10.63c-0.27,0.26-0.7,0.39-1.29,0.39 c-0.59,0-1.02-0.13-1.28-0.39c-0.26-0.26-0.39-0.67-0.39-1.23c0-0.58,0.13-1,0.39-1.25c0.26-0.26,0.68-0.39,1.28-0.39 c0.59,0,1.02,0.13,1.29,0.39c0.27,0.26,0.4,0.68,0.4,1.25C17.63,9.96,17.5,10.37,17.23,10.63z"></path>
    </g>
</svg>